PathFileType	4	(X/Y/Z)	20_1_11_p1_0-563.trc
DataRate	CameraRate	NumFrames	NumMarkers	Units	OrigDataRate	OrigDataStartFrame	OrigNumFrames
58.0	58.0	7	27	m	58.0	282	564
Frame#	Time	RHip			RKnee			RAnkle			RBigToe			RSmallToe			RHeel			LHip			LKnee			LAnkle			LBigToe			LSmallToe			LHeel			Neck			Head			Nose			RShoulder			RElbow			RWrist			RThumb			RIndex			RPinky			LShoulder			LElbow			LWrist			LThumb			LIndex			LPinky			
		X1	Y1	Z1	X2	Y2	Z2	X3	Y3	Z3	X4	Y4	Z4	X5	Y5	Z5	X6	Y6	Z6	X7	Y7	Z7	X8	Y8	Z8	X9	Y9	Z9	X10	Y10	Z10	X11	Y11	Z11	X12	Y12	Z12	X13	Y13	Z13	X14	Y14	Z14	X15	Y15	Z15	X16	Y16	Z16	X17	Y17	Z17	X18	Y18	Z18	X19	Y19	Z19	X20	Y20	Z20	X21	Y21	Z21	X22	Y22	Z22	X23	Y23	Z23	X24	Y24	Z24	X25	Y25	Z25	X26	Y26	Z26	X27	Y27	Z27	
282	4.862068965517241	0.32798841035523846	0.5583923673221242	0.9296405772981257	0.3409366089204457	0.6871140833619909	1.3313518006753393	0.35687498201021983	0.8298967046396688	1.7431442581703935	0.3191021142019711	0.6476717701070384	1.8072349827092669	0.38693789447254884	0.660296822838513	1.802700762907749	0.3291782340544041	0.9338726060085801	1.7953484594207028	0.13595960641348775	0.6190807666203939	0.9565903198906267	0.13989735402914993	0.7363641216266157	1.3298651078432058	0.1413213979769206	0.8254323781896865	1.6902816031136196	0.13273860298920315	0.6690539844036753	1.799602070547837	0.08478793326488078	0.7111560263308464	1.793269397892038	0.15323460225603106	0.8886932250931777	1.74492465640817	0.2058518063716356	0.45044493415517795	0.4458731694874764	0.18546907755113934	0.2837728822760147	0.24450938597701713	0.1641491489472802	0.33028995981019094	0.36497094318182116	0.3399421842037678	0.4028316470467138	0.48566630912437986	0.3267070483425019	0.24945542867498402	0.5311745674606213	0.22721065425766881	0.21595259812557704	0.3976851410084183	0.21437782403410272	0.07970804556098655	0.29880502205927717	0.17258296445070584	0.19608853064068937	0.3057915486965963	0.1570085138279068	0.15192775468186925	0.33075530414788196	0.10521855299015492	0.5208218087469756	0.5167438579922031	0.04617205177036772	0.6059286484917411	0.7654284382349019	0.07565222811392068	0.5524051904286211	1.0059557722792258	0.10821143709139124	0.5297440372906695	1.0950093439776798	0.085432814788636	0.5564370176724549	1.1300170104347707	0.06206528343917064	0.562645818556693	1.1180478552022666
283	4.879310344827586	0.33254813421853213	0.5720519809555089	0.9308831659119784	0.34091872631601594	0.6870062170126335	1.3312905661589074	0.3534671868774809	0.848121980788739	1.7492763901176407	0.31914407028899705	0.648068316690659	1.8073890801893744	0.3869490959340439	0.6602551256114857	1.8026768980157386	0.32917348412759606	0.9334768511100425	1.7950500941750043	0.13592557994194923	0.6193695183748056	0.9566275817798061	0.1398698179099085	0.7364552712535556	1.3299172388837133	0.1413766852799899	0.8253214184731718	1.6902690398411133	0.13670338901076573	0.6528514632845547	1.7932777681575043	0.08364776550866218	0.7090592556674903	1.7833121689873426	0.15302042343933667	0.8886932158484762	1.7447984348315113	0.20567667090920017	0.45001115908251194	0.4459096642497206	0.18561841798357107	0.28331610441481786	0.2413379530754261	0.16405239444128408	0.3309992349584656	0.3650577249878629	0.33967087186955447	0.40324275425076067	0.48208259914632073	0.32350351271648614	0.26285670746176903	0.5342316698644782	0.22695586888322006	0.21679376785384502	0.4004555694618677	0.21437782403410272	0.07970804556098655	0.29880502205927717	0.17207216172387857	0.1975802848574132	0.30441670706259144	0.1652685645249405	0.16646445293407577	0.33096652198874077	0.10497886145955962	0.5201966418852503	0.5170490793458983	0.0457488139916416	0.6048638373878458	0.7655104929055628	0.075654127184581	0.5522881075462177	1.0059402870425689	0.1083238958969818	0.5301767918201489	1.0951489302635156	0.08552206959077475	0.5563665816848276	1.1299293580813379	0.062175776004003945	0.5627119054592217	1.1181383745608473
284	4.896551724137931	0.3283728791730184	0.5714797406043801	0.9307833473692232	0.34092219074039665	0.6869902235912003	1.3311779777289063	0.35352006797361385	0.8482308427439302	1.7492983851079136	0.3150341855240354	0.6319627541863811	1.8014803786483962	0.38411207906902783	0.6739998386844245	1.8082916747038287	0.3306311466849392	0.9296948140710416	1.7926546706514679	0.1354149860200735	0.616601801656708	0.9515312644122258	0.1400882220073757	0.7354850008407545	1.333629340828348	0.14156249137526827	0.8240870639018867	1.693952312669228	0.13706626989547724	0.6522522488324479	1.7932344784835417	0.08513294454205833	0.7104089196160903	1.793160986675913	0.15321286702994194	0.888863383441567	1.7449901606443932	0.2097609939203106	0.46340086806318476	0.44173374983390185	0.18026695149379285	0.27862850527879174	0.24146617455759645	0.15683454522522897	0.34245146413553346	0.3638812983780327	0.3323823206330147	0.41556300636930893	0.4816370112157509	0.3198771854526938	0.25332527647754843	0.5345817900649951	0.22927576980602188	0.2230573891700021	0.39639609564878703	0.21437782403410272	0.07970804556098655	0.29880502205927717	0.17156135899705133	0.199072039074137	0.3030418654285865	0.16551965400995292	0.1653451383462005	0.3275054066062296	0.1051015359466847	0.5200422686286056	0.5135541414047716	0.050785133704888484	0.6241887108457823	0.763500652796643	0.07572074305006381	0.5530116767063976	1.0061967008241897	0.10802722619669293	0.5309336022714709	1.0951996610196002	0.0847194383951661	0.5544449105173823	1.1256768813186624	0.062205301580204445	0.5631027515695259	1.118459683969419
285	4.913793103448276	0.33257194172386395	0.5720482315531996	0.9308328240003966	0.3409156977618772	0.6869529781367713	1.331220952283732	0.35349630894739004	0.8480637483082768	1.7493850537400455	0.314691145392296	0.6325738744160398	1.801657060478664	0.3867918798139869	0.6589888965045126	1.8023006920775024	0.3293669355777239	0.9319219427942005	1.798568123958664	0.1354566319248123	0.6163454233732213	0.9516268570535166	0.13903979912578612	0.7334201465030824	1.3248059508317382	0.14153217021153888	0.8240291514435241	1.693923069646245	0.13691093434303256	0.6525471080391028	1.7933160945700817	0.08416218856395662	0.7073199831587923	1.787079032498654	0.15336565560840584	0.8874296414741937	1.7487991310116977	0.20969937127381155	0.4634234220270093	0.44162282200666914	0.18031246668342604	0.27885434243828444	0.24138152868760562	0.15635731720289203	0.34133867633090004	0.3603116697625041	0.33722128800572954	0.4193609354852303	0.4845834577264253	0.3196074075653412	0.2535420306129163	0.5346111162889438	0.22845203185370866	0.2216758890169842	0.39321121804303744	0.21437782403410272	0.07970804556098655	0.29880502205927717	0.17105055627022406	0.20056379329086083	0.30166702379458166	0.16551923670315538	0.16545520780659242	0.32760197252711387	0.10479945752703565	0.5183706883688514	0.5108063709030913	0.051129043380034794	0.6255899492355329	0.7636954419808677	0.07583744472438703	0.5534085061134473	1.0063883165131826	0.10914440849619983	0.5305194863559288	1.092275467596422	0.08922385004617557	0.5563720695480313	1.1258628500385455	0.06232522778526399	0.5632821610345123	1.1187580764028893
286	4.931034482758621	0.33257774106976956	0.572104864963884	0.9307345978461565	0.3409708259242186	0.6869550787170171	1.3311384199494471	0.35690815234841633	0.8298911396563787	1.743150371005851	0.3189901634940074	0.6472070526630193	1.8070053897520113	0.38664848498718785	0.6593378831730341	1.8023114993791154	0.32923896352479504	0.9336464074318572	1.7953164357877065	0.13609681710451452	0.6151262935813735	0.9479751405323604	0.1407244777915325	0.7349941002985261	1.3255102895462416	0.14135637713374982	0.825428114510899	1.6903937784899588	0.13697058068727264	0.6532579704812346	1.7936491170966122	0.08499287311909604	0.7108324527156658	1.7932793079050204	0.15322165725403974	0.8895100706909356	1.7455638648465819	0.20959849111767123	0.463030185860488	0.44162266334679223	0.18474274092480944	0.2817970364478444	0.2410199951328509	0.15629102022694014	0.3408411370296018	0.3602554594001787	0.33292661818794417	0.4178185496189823	0.48462869069173353	0.3194465466495124	0.25385265036436894	0.5346599949685625	0.22580624042991057	0.21245711479821916	0.39394675455750383	0.21437782403410272	0.07970804556098655	0.29880502205927717	0.17053975354339682	0.20205554750758464	0.3002921821605768	0.17405206448149937	0.18072031313772333	0.3258172111221716	0.1046894508065662	0.5174590162575238	0.5148170283532334	0.04738015317998361	0.6100650073177453	0.7626604219520129	0.07581700969207715	0.5529324673180789	1.006155853096282	0.10848129980669545	0.529094122447614	1.0915625325829552	0.08485075737389844	0.554071275417755	1.1253621917265888	0.05789292723194599	0.5612384102146746	1.1178286826875645
287	4.948275862068965	0.3324712288672784	0.5722613036502084	0.9308375987151116	0.3407102208367499	0.6880427676694332	1.3275330526797473	0.35690525880987434	0.8299351563160955	1.7431478713721076	0.3146507046686821	0.6318576866406538	1.8013210214541555	0.38671482615308866	0.657905273016036	1.8019605775725174	0.33062067427501585	0.9367884322864571	1.8008377767726989	0.13596551913857693	0.6191206428184529	0.9563952605434013	0.1398944736528945	0.7365638649100846	1.3298521325288457	0.14147725058209387	0.8256904154835009	1.6905824690168652	0.13688100711251472	0.6529489782570789	1.7935106250930908	0.08489329212259286	0.7105403805558084	1.7930662517961196	0.15342061854647987	0.8896343893322957	1.745680293974959	0.20603720815336626	0.45244296545154283	0.4421161638666305	0.18015416444955554	0.27948418098624467	0.2436930902546178	0.15700952663230622	0.3416398374258739	0.36363157644900596	0.33285711251821654	0.4178402596526997	0.4846597138821089	0.3165732228413929	0.26607495456995234	0.5343696907395022	0.22603005228929932	0.21126015412406401	0.3924148656781434	0.21437782403410272	0.07970804556098655	0.29880502205927717	0.17002895081656955	0.20354730172430846	0.2989173405265719	0.16524660488427417	0.1647408960007604	0.32638616772067924	0.10106279840651725	0.5324484998066866	0.5146132581022304	0.04730380717705802	0.6101638548541262	0.7627186182288014	0.0753539272259243	0.5503952886310922	1.0022047190276204	0.10886038126988568	0.5309175944545869	1.0920999249770686	0.08919306876348708	0.5562252837645318	1.1257439131739806	0.06229851860416845	0.5626966899413034	1.1181857448533654
288	4.9655172413793105	0.3330040925127346	0.5712268198438076	0.9267807373974969	0.34093920513623466	0.6870537776835317	1.3310829875536838	0.35684880495105004	0.8299309094705493	1.7429756206868925	0.31451022954907604	0.6336520169503541	1.8020020810942734	0.3866661547701163	0.660296413231132	1.8025886534131252	0.3301390199663091	0.9369516613817473	1.8003270656374548	0.13532098707656134	0.6163937545644811	0.9514952979492396	0.14068222298633334	0.7351608758386818	1.3255731596307252	0.14124268462792844	0.8255073890136262	1.6902183397277484	0.13633280211744536	0.6542247290807987	1.7935117611993696	0.08450322632043397	0.7084172471445204	1.7791809362890314	0.151691086616787	0.8856496179885244	1.7392692281985027	0.20533194586825346	0.44979315044561763	0.44226414162798366	0.18069674206515185	0.28065372919227327	0.23875073698615343	0.15763200858631982	0.3420387515631587	0.3632299579228433	0.33741104811785566	0.41942479756930684	0.48438891239132353	0.3125948056094079	0.25489044270213296	0.5344566863533727	0.2248481064829474	0.23065111972792657	0.385528655064915	0.21437782403410272	0.07970804556098655	0.29880502205927717	0.1695181480897423	0.20503905594103228	0.297542498892567	0.15685665376851846	0.15007724129811528	0.32741421044033886	0.09967257525017387	0.5133006425519914	0.5107478401804914	0.044872317911946596	0.6008549220116369	0.7615771167418793	0.07545955378924314	0.5519837312702273	1.0057831531326575	0.10816337683645383	0.5274536994849629	1.0910689301752454	0.0884781496130214	0.5543339939893698	1.1291288884767412	0.06504932023701382	0.5746742523393154	1.1194494357660005
